<?xml version="1.0" encoding="UTF-8" standalone="no"?>
<!DOCTYPE svg PUBLIC "-//W3C//DTD SVG 1.1//EN" "http://www.w3.org/Graphics/SVG/1.1/DTD/svg11.dtd">
<!-- Created with Vectornator (http://vectornator.io/) -->
<svg height="100%" stroke-miterlimit="10" style="fill-rule:nonzero;clip-rule:evenodd;stroke-linecap:round;stroke-linejoin:round;" version="1.1" viewBox="0 0 256 256" width="100%" xml:space="preserve" xmlns="http://www.w3.org/2000/svg" xmlns:vectornator="http://vectornator.io" xmlns:xlink="http://www.w3.org/1999/xlink">
<defs/>
<g id="Untitled" vectornator:layerName="Untitled">
<path d="M245.352 131.49C245.328 132.283 244.248 132.492 243.936 131.761C243.802 131.446 243.665 131.129 243.526 130.813C243.272 130.234 243.343 129.56 243.723 129.054C243.801 128.95 243.961 128.741 244.152 128.491C244.666 127.82 245.406 127.92 245.406 128.665C245.406 129.642 245.383 130.488 245.352 131.49M239.67 115.972C238.795 117.548 236.551 117.621 235.579 116.101C235.429 115.866 235.277 115.631 235.124 115.395C231.622 110.018 227.592 104.74 223.09 99.6106C221.985 98.3512 222.889 96.3746 224.565 96.3735L224.605 96.3735C235.124 96.3735 240.638 98.9717 242.321 102.144C243.725 104.798 243.295 109.438 239.67 115.972M237.319 170.977C236.755 172.413 236.164 173.839 235.544 175.251C235.447 175.446 235.356 175.643 235.256 175.836C231.385 183.288 224.889 189.155 216.208 193.238C214.26 194.154 212.129 192.372 212.709 190.299C215.592 179.983 217.773 168.795 219.187 157.065C219.45 154.878 220.529 152.87 222.196 151.429C225.766 148.341 229.1 145.257 232.166 142.195L232.2 142.16C233.709 140.654 236.283 141.302 236.898 143.345C239.927 153.416 240.095 162.797 237.319 170.977M213.722 208.224C212.839 209.168 211.938 210.101 211.019 211.019C209.419 212.617 207.781 214.163 206.107 215.656C205.052 216.597 203.455 215.42 204.052 214.138C204.223 213.772 204.392 213.403 204.56 213.032C205.263 211.481 205.943 209.89 206.603 208.269C206.76 207.887 207.089 207.601 207.49 207.499C209.154 207.077 210.778 206.61 212.358 206.1C213.639 205.688 214.643 207.241 213.722 208.224M196.394 198.911C192.89 199.419 189.205 199.747 185.349 199.883C175.943 200.212 165.997 199.401 155.781 197.52C154.535 197.29 154.296 195.606 155.425 195.035C157.654 193.907 159.883 192.754 162.112 191.573C177.745 183.287 192.331 174.229 205.1 164.943C206.058 164.246 207.377 165.068 207.182 166.237C205.412 176.879 202.96 186.898 199.881 195.992C199.356 197.541 198.013 198.677 196.394 198.911M192.78 213.09C184.399 229.575 174.076 238.83 164.07 238.644C153.195 238.45 142.351 227.125 134.321 207.575L134.311 207.553C133.801 206.312 134.387 204.892 135.617 204.358C135.702 204.32 135.787 204.283 135.872 204.245C136.4 204.016 136.991 203.974 137.546 204.131C152.568 208.346 167.368 210.546 181.235 210.546C182.742 210.546 184.239 210.521 185.722 210.469C187.46 210.407 189.169 210.309 190.849 210.176C192.406 210.052 193.489 211.697 192.78 213.09M143.147 244.439C138.163 245.079 133.106 245.407 127.999 245.407C105.179 245.407 83.3515 238.94 64.6116 226.872C63.3223 226.041 63.8703 224.04 65.4025 223.97C65.7202 223.955 66.0172 223.939 66.2785 223.923C71.0409 223.613 76.2626 222.915 81.9206 221.825C93.956 219.51 107.335 215.539 121.343 210.19C122.599 209.712 124.001 210.334 124.513 211.578C124.516 211.586 124.518 211.593 124.522 211.6C129.951 224.817 136.632 234.805 144.134 241.158C145.374 242.209 144.758 244.232 143.147 244.439M75.2519 162.176C85.5974 153.752 97.7192 145.346 111.016 137.388C111.302 154.396 113.167 170.724 116.467 185.473C111.535 183.369 106.619 181.053 101.745 178.522C92.3041 173.616 83.4217 168.12 75.2519 162.176M43.0779 207.747C40.6098 203.09 43.7997 192.304 60.0047 175.91L60.0127 175.902C61.7049 174.192 61.5426 171.387 59.6536 169.898C59.0043 169.389 58.3596 168.873 57.7196 168.357C56.1057 167.053 53.7699 167.173 52.3045 168.64C51.9833 168.961 51.7439 169.203 51.6737 169.276C43.5729 177.591 37.9034 185.287 34.7273 192.21C33.8271 194.172 31.1081 194.384 29.9178 192.583C17.3459 173.579 10.5931 151.309 10.5931 127.999C10.5931 119.666 11.4588 111.465 13.143 103.499C13.3974 102.294 15.0977 102.217 15.4545 103.396C17.8904 111.438 21.855 119.756 27.3334 128.168C34.7078 139.493 44.4328 150.379 55.9572 160.366C59.8907 163.774 64.0453 167.071 68.3783 170.252C77.1617 176.697 86.706 182.645 96.8604 187.921C101.361 190.26 105.745 192.492 110.235 194.514C112.734 195.639 115.578 195.726 118.129 194.725C120.246 193.896 122.378 193.033 124.523 192.137C126.855 191.164 128.12 188.621 127.502 186.17C127.425 185.864 127.364 185.618 127.329 185.473C123.794 170.595 121.829 153.847 121.598 136.304L121.591 136.307C121.589 136.099 121.59 135.887 121.587 135.677C121.577 134.718 121.583 133.752 121.566 132.795C121.56 132.49 121.569 131.973 121.573 131.667C121.575 131.545 121.573 131.424 121.573 131.303C121.574 131.303 121.576 131.302 121.577 131.302C121.583 130.204 121.591 129.107 121.61 128.005C121.665 124.996 121.773 122.009 121.928 119.046C121.926 119.047 121.925 119.048 121.922 119.049C123.013 97.8804 126.602 77.9893 132.313 61.2571C132.841 59.7088 132.016 58.0281 130.468 57.4997C128.958 56.984 127.45 56.4913 125.945 56.0193C124.422 55.5416 122.794 56.3635 122.279 57.875C116.09 76.0462 112.27 97.6041 111.251 120.417C111.121 123.311 109.546 125.945 107.054 127.422C93.5428 135.429 81.1343 143.918 70.4147 152.474C68.1814 154.258 64.9915 154.19 62.8319 152.317C52.0881 143.001 43.0457 132.884 36.21 122.386C22.7771 101.76 19.5849 82.3281 27.224 67.6806C27.2448 67.6461 27.2632 67.6104 27.2828 67.577C28.2566 65.9608 29.2697 64.3664 30.3241 62.7939C39.1018 51.1752 55.4391 44.442 77.1064 43.6811C78.4774 43.6328 79.8577 43.6086 81.2506 43.6086C94.5408 43.6086 108.804 45.8016 123.31 49.9872L123.313 49.9838C123.631 50.0759 123.949 50.1714 124.266 50.2646C124.511 50.3372 124.757 50.4051 125.002 50.4788C125.001 50.4799 125.001 50.4799 125.001 50.4811C128.353 51.4826 131.715 52.5912 135.081 53.8022C135.083 53.801 135.083 53.801 135.083 53.7999C135.161 53.8275 135.239 53.8586 135.317 53.8862C136.195 54.2028 137.071 54.5274 137.947 54.8578C138.221 54.9614 138.496 55.0662 138.77 55.1721C139.033 55.2734 139.297 55.3712 139.562 55.4737L139.558 55.4783C146.643 58.2204 153.721 61.4091 160.711 65.0422C174.241 72.0712 186.625 80.3112 197.402 89.3514C176.834 94.0631 152.927 103.153 128.889 115.408C127.781 115.974 127.051 117.089 126.981 118.332C126.897 119.822 126.786 122.817 126.707 125.198C126.657 126.692 128.238 127.682 129.562 126.986L129.575 126.978C153.375 114.481 177.127 105.141 197.524 100.205C201.337 99.2825 203.805 95.6206 203.27 91.7354C202.894 89.021 202.472 86.3491 202.005 83.7245C201.417 80.4275 199.612 77.4794 196.949 75.451C187.395 68.1733 176.867 61.4977 165.595 55.6406C158 51.6944 150.293 48.2363 142.57 45.287C140.918 44.6562 140.21 42.7038 141.072 41.1601C149.029 26.9259 158.493 18.9541 167.712 18.9541C167.808 18.9541 167.904 18.9541 167.999 18.9564C178.874 19.1509 189.718 30.4749 197.749 50.0252C201.813 59.9218 204.963 71.3344 207.116 83.7371C207.104 83.7268 207.093 83.7175 207.082 83.7072C208.001 89.0003 208.741 94.4706 209.29 100.083C209.243 100.112 209.192 100.139 209.145 100.169C209.21 100.234 209.278 100.3 209.343 100.367C210.254 109.783 210.638 119.589 210.459 129.595C210.346 135.924 210.009 142.166 209.463 148.273C194.913 160.031 176.924 171.732 157.15 182.211C150.652 185.656 144.155 188.862 137.721 191.813C137.621 191.859 137.522 191.904 137.422 191.95C136.93 192.175 136.438 192.403 135.946 192.625C135.941 192.624 135.938 192.623 135.934 192.621C130.603 195.033 125.323 197.264 120.13 199.302C120.131 199.303 120.131 199.305 120.132 199.306C119.839 199.421 119.548 199.532 119.255 199.646C118.89 199.789 118.525 199.929 118.162 200.069C117.29 200.403 116.422 200.732 115.557 201.056C115.318 201.145 115.079 201.238 114.84 201.325C113.789 201.716 112.744 202.094 111.702 202.467C111.572 202.513 111.442 202.563 111.313 202.609C111.311 202.608 111.31 202.608 111.309 202.607C100.18 206.57 89.5793 209.564 79.9187 211.423C56.5742 215.918 45.5817 212.47 43.0779 207.747M59.8447 32.3767C79.6033 18.2277 103.214 10.5931 127.999 10.5931C134.542 10.5931 141 11.1284 147.328 12.1725C149.022 12.4523 149.591 14.6153 148.239 15.6755C142.107 20.4828 136.41 27.5959 131.368 36.8202C130.137 39.0707 127.527 40.1712 125.059 39.4759C108.355 34.7734 91.9196 32.5609 76.7346 33.0938C71.133 33.2907 65.8284 33.8582 60.845 34.7768C59.4452 35.0347 58.6877 33.2044 59.8447 32.3767M221.006 117.943C220.971 116.597 222.698 116.023 223.478 117.119C224.437 118.464 225.362 119.817 226.247 121.177C227.423 122.984 228.518 124.781 229.536 126.566C230.17 127.679 230.018 129.076 229.155 130.022C227.784 131.528 226.296 133.084 224.681 134.698C224.092 135.286 223.491 135.876 222.879 136.466C222.119 137.201 220.845 136.641 220.886 135.585C220.961 133.659 221.016 131.726 221.051 129.784C221.122 125.805 221.105 121.856 221.006 117.943M208.83 42.8477C209.568 43.5476 210.298 44.259 211.019 44.9808C222.333 56.2945 231.047 69.5145 236.875 83.9121C237.463 85.3637 236.23 86.8833 234.688 86.6058C231.317 86.0003 227.522 85.7298 223.322 85.8C220.411 85.8484 217.88 83.8085 217.369 80.9421C215.086 68.1423 211.786 56.3186 207.547 45.9996C207.306 45.4113 207.062 44.83 206.814 44.2544C206.275 42.9985 207.839 41.906 208.83 42.8477M253.235 101.378C248.177 77.3447 236.283 55.263 218.509 37.489C194.333 13.3133 162.19 0.000101 127.999 0.000101C93.8098 0.000101 61.6658 13.3133 37.4901 37.489C31.61 43.3692 26.3802 49.7224 21.8205 56.4591C20.4644 58.2641 19.2499 60.1704 18.1701 62.1654C6.32576 81.8469 0.000101 104.437 0.000101 127.999C0.000101 162.19 13.3145 194.333 37.4901 218.509C61.6658 242.684 93.8098 256 127.999 256C162.19 256 194.333 242.684 218.509 218.509C229.919 207.1 238.906 193.914 245.219 179.577C245.991 177.989 246.664 176.362 247.243 174.703C252.99 160.019 256 144.241 256 127.999C256 119.06 255.081 110.263 253.305 101.709C253.281 101.599 253.259 101.488 253.235 101.378" fill="#000000" fill-rule="evenodd" opacity="1" stroke="none" vectornator:layerName="path"/>
</g>
</svg>
